{
  "accessors": [
    {
      "bufferView": 0,
      "byteOffset": 0,
      "componentType": 5123,
      "count": 195,
      "max": [
        149.0
      ],
      "min": [
        0.0
      ],
      "name": "buffer-0-group-0-mesh-0-indices",
      "type": "SCALAR"
    },
    {
      "bufferView": 1,
      "byteOffset": 0,
      "componentType": 5126,
      "count": 150,
      "max": [
        -4.91785192489624,
        3.111356019973755,
        0.3575409948825836
      ],
      "min": [
        -5.896910190582275,
        0.7483590245246887,
        -0.6036890149116516
      ],
      "name": "buffer-0-group-0-mesh-0-position",
      "type": "VEC3"
    },
    {
      "bufferView": 1,
      "byteOffset": 1800,
      "componentType": 5126,
      "count": 150,
      "max": [
        0.8655009269714355,
        1.0,
        0.9646639823913574
      ],
      "min": [
        -0.9737172722816467,
        -0.9957237243652344,
        -0.8639518618583679
      ],
      "name": "buffer-0-group-0-mesh-0-normal",
      "type": "VEC3"
    },
    {
      "bufferView": 2,
      "byteOffset": 0,
      "componentType": 5126,
      "count": 150,
      "max": [
        0.9965500235557556,
        -0.024135999381542206
      ],
      "min": [
        0.0024649999104440212,
        -0.9948539733886719
      ],
      "name": "buffer-0-group-0-mesh-0-texcoord",
      "type": "VEC2"
    },
    {
      "bufferView": 0,
      "byteOffset": 390,
      "componentType": 5123,
      "count": 135,
      "max": [
        55.0
      ],
      "min": [
        0.0
      ],
      "name": "buffer-0-group-1-mesh-0-indices",
      "type": "SCALAR"
    },
    {
      "bufferView": 1,
      "byteOffset": 3600,
      "componentType": 5126,
      "count": 56,
      "max": [
        -5.205475807189941,
        0.8228170275688171,
        0.05214900150895119
      ],
      "min": [
        -5.3766069412231445,
        0.05810999870300293,
        -0.1162090003490448
      ],
      "name": "buffer-0-group-1-mesh-0-position",
      "type": "VEC3"
    },
    {
      "bufferView": 1,
      "byteOffset": 4272,
      "componentType": 5126,
      "count": 56,
      "max": [
        0.9941450953483582,
        0.2556520104408264,
        0.9120985269546509
      ],
      "min": [
        -0.8677906394004822,
        -1.0,
        -0.9788782000541687
      ],
      "name": "buffer-0-group-1-mesh-0-normal",
      "type": "VEC3"
    },
    {
      "bufferView": 2,
      "byteOffset": 1200,
      "componentType": 5126,
      "count": 56,
      "max": [
        0.7112169861793518,
        -0.8557249903678894
      ],
      "min": [
        0.3787040114402771,
        -0.9938709735870361
      ],
      "name": "buffer-0-group-1-mesh-0-texcoord",
      "type": "VEC2"
    }
  ],
  "asset": {
    "generator": "Obj2GltfConverter",
    "version": "2.0"
  },
  "bufferViews": [
    {
      "buffer": 0,
      "byteLength": 660,
      "byteOffset": 0,
      "name": "buffer-0-bufferview-ushort",
      "target": 34963
    },
    {
      "buffer": 0,
      "byteLength": 4944,
      "byteOffset": 660,
      "byteStride": 12,
      "name": "buffer-0-bufferview-vec3",
      "target": 34962
    },
    {
      "buffer": 0,
      "byteLength": 1648,
      "byteOffset": 5608,
      "byteStride": 8,
      "name": "buffer-0-bufferview-vec2",
      "target": 34962
    }
  ],
  "buffers": [
    {
      "byteLength": 7256,
      "name": "buffer-0",
      "uri": "pino1.bin"
    }
  ],
  "materials": [
    {
      "alphaMode": "OPAQUE",
      "doubleSided": true,
      "name": "lambert115SG",
      "pbrMetallicRoughness": {
        "baseColorFactor": [
          0.01,
          0.05,
          0.03,
          1.0
        ],
        "metallicFactor": 0.0,
        "roughnessFactor": 0.9699476628648295
      }
    },
    {
      "alphaMode": "OPAQUE",
      "doubleSided": true,
      "name": "lambert114SG",
      "pbrMetallicRoughness": {
        "baseColorFactor": [
          0.04,
          0.01,
          0.0,
          1.0
        ],
        "metallicFactor": 0.0,
        "roughnessFactor": 0.9699476628648295
      }
    }
  ],
  "meshes": [
    {
      "name": "buffer-0-mesh-0",
      "primitives": [
        {
          "attributes": {
            "POSITION": 1,
            "NORMAL": 2,
            "TEXCOORD_0": 3
          },
          "indices": 0,
          "material": 0,
          "mode": 4
        },
        {
          "attributes": {
            "POSITION": 5,
            "NORMAL": 6,
            "TEXCOORD_0": 7
          },
          "indices": 4,
          "material": 1,
          "mode": 4
        }
      ]
    }
  ],
  "nodes": [
    {
      "mesh": 0,
      "name": "node-0"
    }
  ],
  "scenes": [
    {
      "name": "scene-0",
      "nodes": [
        0
      ]
    }
  ]
}