{
    "accessors" : [
        {
            "bufferView" : 0,
            "componentType" : 5125,
            "count" : 1572864,
            "max" : [
                1048575
            ],
            "min" : [
                0
            ],
            "type" : "SCALAR"
        },
        {
            "bufferView" : 1,
            "componentType" : 5126,
            "count" : 1048576,
            "max" : [
                5.0,
                1.12533438205719,
                5.0
            ],
            "min" : [
                -5.0,
                -0.41428142786026,
                -5.0
            ],
            "type" : "VEC3"
        },
        {
            "bufferView" : 2,
            "componentType" : 5126,
            "count" : 1048576,
            "max" : [
                0.9245104193687439,
                0.9999990463256836,
                0.9243888854980469
            ],
            "min" : [
                -0.9185250401496887,
                0.33608490228652954,
                -0.913518488407135
            ],
            "type" : "VEC3"
        }
    ],
    "asset" : {
        "generator" : "Khronos Blender glTF 2.0 exporter",
        "version" : "2.0"
    },
    "bufferViews" : [
        {
            "buffer" : 0,
            "byteLength" : 6291456,
            "byteOffset" : 0,
            "target" : 34963
        },
        {
            "buffer" : 0,
            "byteLength" : 12582912,
            "byteOffset" : 6291456,
            "target" : 34962
        },
        {
            "buffer" : 0,
            "byteLength" : 12582912,
            "byteOffset" : 18874368,
            "target" : 34962
        }
    ],
    "buffers" : [
        {
            "byteLength" : 31457280,
            "uri" : "simple.bin"
        }
    ],
    "meshes" : [
        {
            "name" : "Grid",
            "primitives" : [
                {
                    "attributes" : {
                        "NORMAL" : 2,
                        "POSITION" : 1
                    },
                    "indices" : 0
                }
            ]
        }
    ],
    "nodes" : [
        {
            "mesh" : 0,
            "name" : "Grid"
        }
    ],
    "scene" : 0,
    "scenes" : [
        {
            "name" : "Scene",
            "nodes" : [
                0
            ]
        }
    ]
}
