{
    "accessors" : [
        {
            "bufferView" : 0,
            "componentType" : 5123,
            "count" : 24576,
            "max" : [
                16383
            ],
            "min" : [
                0
            ],
            "type" : "SCALAR"
        },
        {
            "bufferView" : 1,
            "componentType" : 5126,
            "count" : 16384,
            "max" : [
                5.0,
                0.4968259632587433,
                5.0
            ],
            "min" : [
                -5.0,
                3.2389070838689804e-05,
                -5.0
            ],
            "type" : "VEC3"
        },
        {
            "bufferView" : 2,
            "componentType" : 5126,
            "count" : 16384,
            "max" : [
                0.5300700664520264,
                0.9999998807907104,
                0.5300700664520264
            ],
            "min" : [
                -0.5300700664520264,
                0.8436580896377563,
                -0.5300700664520264
            ],
            "type" : "VEC3"
        }
    ],
    "asset" : {
        "generator" : "Khronos Blender glTF 2.0 exporter",
        "version" : "2.0"
    },
    "bufferViews" : [
        {
            "buffer" : 0,
            "byteLength" : 49152,
            "byteOffset" : 0,
            "target" : 34963
        },
        {
            "buffer" : 0,
            "byteLength" : 196608,
            "byteOffset" : 49152,
            "target" : 34962
        },
        {
            "buffer" : 0,
            "byteLength" : 196608,
            "byteOffset" : 245760,
            "target" : 34962
        }
    ],
    "buffers" : [
        {
            "byteLength" : 442368,
            "uri" : "heightmap_03.bin"
        }
    ],
    "materials" : [
        {
            "name" : "Material.001",
            "pbrMetallicRoughness" : {
                "baseColorFactor" : [
                    0.0057972305386845835,
                    0.08482976086184024,
                    0.405653864229528,
                    1.0
                ],
                "metallicFactor" : 0.0
            }
        }
    ],
    "meshes" : [
        {
            "name" : "Grid",
            "primitives" : [
                {
                    "attributes" : {
                        "NORMAL" : 2,
                        "POSITION" : 1
                    },
                    "indices" : 0,
                    "material" : 0
                }
            ]
        }
    ],
    "nodes" : [
        {
            "mesh" : 0,
            "name" : "Grid"
        }
    ],
    "scene" : 0,
    "scenes" : [
        {
            "name" : "Scene",
            "nodes" : [
                0
            ]
        }
    ]
}
