{
    "asset" : {
        "generator" : "Khronos glTF Blender I/O v1.0.5",
        "version" : "2.0"
    },
    "scene" : 0,
    "scenes" : [
        {
            "name" : "Scene",
            "nodes" : [
                0,
                1,
                2
            ]
        }
    ],
    "nodes" : [
        {
            "mesh" : 0,
            "name" : "pine_01_LOD0",
            "rotation" : [
                0.7071068286895752,
                0,
                0,
                0.7071067094802856
            ],
            "translation" : [
                0,
                0.5299999713897705,
                0
            ]
        },
        {
            "mesh" : 1,
            "name" : "pine_01_LOD1",
            "rotation" : [
                0.7071068286895752,
                0,
                0,
                0.7071067094802856
            ],
            "translation" : [
                0,
                0.5299999713897705,
                0
            ]
        },
        {
            "mesh" : 2,
            "name" : "pine_01_LOD2",
            "rotation" : [
                0.7071068286895752,
                0,
                0,
                0.7071067094802856
            ],
            "translation" : [
                0,
                0.5299999713897705,
                0
            ]
        }
    ],
    "materials" : [
        {
            "doubleSided" : true,
            "name" : "lambert117SG",
            "pbrMetallicRoughness" : {
                "baseColorFactor" : [
                    0.009999999776482582,
                    0.07999999821186066,
                    0.05999999865889549,
                    1
                ],
                "metallicFactor" : 0,
                "roughnessFactor" : 0.9699476361274719
            }
        },
        {
            "doubleSided" : true,
            "name" : "lambert116SG",
            "pbrMetallicRoughness" : {
                "baseColorFactor" : [
                    0.05999999865889549,
                    0.019999999552965164,
                    0,
                    1
                ],
                "metallicFactor" : 0,
                "roughnessFactor" : 0.9699476361274719
            }
        },
        {
            "doubleSided" : true,
            "name" : "__default",
            "pbrMetallicRoughness" : {
                "baseColorFactor" : [
                    1,
                    1,
                    1,
                    1
                ],
                "metallicFactor" : 0,
                "roughnessFactor" : 0.9699476361274719
            }
        }
    ],
    "meshes" : [
        {
            "name" : "pine_01_LOD0",
            "primitives" : [
                {
                    "attributes" : {
                        "POSITION" : 0,
                        "NORMAL" : 1,
                        "TEXCOORD_0" : 2
                    },
                    "indices" : 3,
                    "material" : 0
                },
                {
                    "attributes" : {
                        "POSITION" : 4,
                        "NORMAL" : 5,
                        "TEXCOORD_0" : 6
                    },
                    "indices" : 7,
                    "material" : 1
                },
                {
                    "attributes" : {
                        "POSITION" : 8,
                        "NORMAL" : 9,
                        "TEXCOORD_0" : 10
                    },
                    "indices" : 11,
                    "material" : 2
                }
            ]
        },
        {
            "name" : "pine_01_LOD1",
            "primitives" : [
                {
                    "attributes" : {
                        "POSITION" : 12,
                        "NORMAL" : 13,
                        "TEXCOORD_0" : 14
                    },
                    "indices" : 15,
                    "material" : 0
                },
                {
                    "attributes" : {
                        "POSITION" : 16,
                        "NORMAL" : 17,
                        "TEXCOORD_0" : 18
                    },
                    "indices" : 19,
                    "material" : 1
                }
            ]
        },
        {
            "name" : "pine_01_LOD2",
            "primitives" : [
                {
                    "attributes" : {
                        "POSITION" : 20,
                        "NORMAL" : 21,
                        "TEXCOORD_0" : 22
                    },
                    "indices" : 23,
                    "material" : 0
                },
                {
                    "attributes" : {
                        "POSITION" : 24,
                        "NORMAL" : 25,
                        "TEXCOORD_0" : 26
                    },
                    "indices" : 27,
                    "material" : 1
                }
            ]
        }
    ],
    "accessors" : [
        {
            "bufferView" : 0,
            "componentType" : 5126,
            "count" : 138,
            "max" : [
                0.23262381553649902,
                0.2240944653749466,
                0.24410408735275269
            ],
            "min" : [
                -0.24375247955322266,
                -0.28548553586006165,
                -0.8337958455085754
            ],
            "type" : "VEC3"
        },
        {
            "bufferView" : 1,
            "componentType" : 5126,
            "count" : 138,
            "type" : "VEC3"
        },
        {
            "bufferView" : 2,
            "componentType" : 5126,
            "count" : 138,
            "type" : "VEC2"
        },
        {
            "bufferView" : 3,
            "componentType" : 5123,
            "count" : 168,
            "type" : "SCALAR"
        },
        {
            "bufferView" : 4,
            "componentType" : 5126,
            "count" : 55,
            "max" : [
                0.021667957305908203,
                0.06320346891880035,
                0.5798020958900452
            ],
            "min" : [
                -0.07805204391479492,
                -0.03515753149986267,
                0.1787520945072174
            ],
            "type" : "VEC3"
        },
        {
            "bufferView" : 5,
            "componentType" : 5126,
            "count" : 55,
            "type" : "VEC3"
        },
        {
            "bufferView" : 6,
            "componentType" : 5126,
            "count" : 55,
            "type" : "VEC2"
        },
        {
            "bufferView" : 7,
            "componentType" : 5123,
            "count" : 123,
            "type" : "SCALAR"
        },
        {
            "bufferView" : 8,
            "componentType" : 5126,
            "count" : 7,
            "max" : [
                0.012492656707763672,
                0.009734466671943665,
                0.1787520945072174
            ],
            "min" : [
                -0.03393125534057617,
                -0.02539653331041336,
                0.1787520945072174
            ],
            "type" : "VEC3"
        },
        {
            "bufferView" : 9,
            "componentType" : 5126,
            "count" : 7,
            "type" : "VEC3"
        },
        {
            "bufferView" : 10,
            "componentType" : 5126,
            "count" : 7,
            "type" : "VEC2"
        },
        {
            "bufferView" : 11,
            "componentType" : 5123,
            "count" : 9,
            "type" : "SCALAR"
        },
        {
            "bufferView" : 12,
            "componentType" : 5126,
            "count" : 126,
            "max" : [
                0.23262381553649902,
                0.2240944653749466,
                0.24410408735275269
            ],
            "min" : [
                -0.24375247955322266,
                -0.28548553586006165,
                -0.8337958455085754
            ],
            "type" : "VEC3"
        },
        {
            "bufferView" : 13,
            "componentType" : 5126,
            "count" : 126,
            "type" : "VEC3"
        },
        {
            "bufferView" : 14,
            "componentType" : 5126,
            "count" : 126,
            "type" : "VEC2"
        },
        {
            "bufferView" : 15,
            "componentType" : 5123,
            "count" : 150,
            "type" : "SCALAR"
        },
        {
            "bufferView" : 16,
            "componentType" : 5126,
            "count" : 23,
            "max" : [
                0.025065967813134193,
                0.07814352214336395,
                0.5870054960250854
            ],
            "min" : [
                -0.06680910289287567,
                -0.05282565578818321,
                0.17151100933551788
            ],
            "type" : "VEC3"
        },
        {
            "bufferView" : 17,
            "componentType" : 5126,
            "count" : 23,
            "type" : "VEC3"
        },
        {
            "bufferView" : 18,
            "componentType" : 5126,
            "count" : 23,
            "type" : "VEC2"
        },
        {
            "bufferView" : 19,
            "componentType" : 5123,
            "count" : 33,
            "type" : "SCALAR"
        },
        {
            "bufferView" : 20,
            "componentType" : 5126,
            "count" : 104,
            "max" : [
                0.23262381553649902,
                0.2240944653749466,
                0.24410408735275269
            ],
            "min" : [
                -0.24375247955322266,
                -0.28548553586006165,
                -0.8337958455085754
            ],
            "type" : "VEC3"
        },
        {
            "bufferView" : 21,
            "componentType" : 5126,
            "count" : 104,
            "type" : "VEC3"
        },
        {
            "bufferView" : 22,
            "componentType" : 5126,
            "count" : 104,
            "type" : "VEC2"
        },
        {
            "bufferView" : 23,
            "componentType" : 5123,
            "count" : 114,
            "type" : "SCALAR"
        },
        {
            "bufferView" : 24,
            "componentType" : 5126,
            "count" : 6,
            "max" : [
                0.011809710413217545,
                0.07814352214336395,
                0.5758112072944641
            ],
            "min" : [
                -0.06680910289287567,
                -0.0195942260324955,
                0.17151100933551788
            ],
            "type" : "VEC3"
        },
        {
            "bufferView" : 25,
            "componentType" : 5126,
            "count" : 6,
            "type" : "VEC3"
        },
        {
            "bufferView" : 26,
            "componentType" : 5126,
            "count" : 6,
            "type" : "VEC2"
        },
        {
            "bufferView" : 27,
            "componentType" : 5123,
            "count" : 6,
            "type" : "SCALAR"
        }
    ],
    "bufferViews" : [
        {
            "buffer" : 0,
            "byteLength" : 1656,
            "byteOffset" : 0
        },
        {
            "buffer" : 0,
            "byteLength" : 1656,
            "byteOffset" : 1656
        },
        {
            "buffer" : 0,
            "byteLength" : 1104,
            "byteOffset" : 3312
        },
        {
            "buffer" : 0,
            "byteLength" : 336,
            "byteOffset" : 4416
        },
        {
            "buffer" : 0,
            "byteLength" : 660,
            "byteOffset" : 4752
        },
        {
            "buffer" : 0,
            "byteLength" : 660,
            "byteOffset" : 5412
        },
        {
            "buffer" : 0,
            "byteLength" : 440,
            "byteOffset" : 6072
        },
        {
            "buffer" : 0,
            "byteLength" : 246,
            "byteOffset" : 6512
        },
        {
            "buffer" : 0,
            "byteLength" : 84,
            "byteOffset" : 6760
        },
        {
            "buffer" : 0,
            "byteLength" : 84,
            "byteOffset" : 6844
        },
        {
            "buffer" : 0,
            "byteLength" : 56,
            "byteOffset" : 6928
        },
        {
            "buffer" : 0,
            "byteLength" : 18,
            "byteOffset" : 6984
        },
        {
            "buffer" : 0,
            "byteLength" : 1512,
            "byteOffset" : 7004
        },
        {
            "buffer" : 0,
            "byteLength" : 1512,
            "byteOffset" : 8516
        },
        {
            "buffer" : 0,
            "byteLength" : 1008,
            "byteOffset" : 10028
        },
        {
            "buffer" : 0,
            "byteLength" : 300,
            "byteOffset" : 11036
        },
        {
            "buffer" : 0,
            "byteLength" : 276,
            "byteOffset" : 11336
        },
        {
            "buffer" : 0,
            "byteLength" : 276,
            "byteOffset" : 11612
        },
        {
            "buffer" : 0,
            "byteLength" : 184,
            "byteOffset" : 11888
        },
        {
            "buffer" : 0,
            "byteLength" : 66,
            "byteOffset" : 12072
        },
        {
            "buffer" : 0,
            "byteLength" : 1248,
            "byteOffset" : 12140
        },
        {
            "buffer" : 0,
            "byteLength" : 1248,
            "byteOffset" : 13388
        },
        {
            "buffer" : 0,
            "byteLength" : 832,
            "byteOffset" : 14636
        },
        {
            "buffer" : 0,
            "byteLength" : 228,
            "byteOffset" : 15468
        },
        {
            "buffer" : 0,
            "byteLength" : 72,
            "byteOffset" : 15696
        },
        {
            "buffer" : 0,
            "byteLength" : 72,
            "byteOffset" : 15768
        },
        {
            "buffer" : 0,
            "byteLength" : 48,
            "byteOffset" : 15840
        },
        {
            "buffer" : 0,
            "byteLength" : 12,
            "byteOffset" : 15888
        }
    ],
    "buffers" : [
        {
            "byteLength" : 15900,
            "uri" : "pine_01.bin"
        }
    ]
}
